<svg width="35" height="35" viewBox="0 0 35 35" fill="none" xmlns="http://www.w3.org/2000/svg">
<path d="M35 2.91667V8.02083C35 8.40761 34.8464 8.77854 34.5729 9.05203C34.2994 9.32552 33.9284 9.47917 33.5417 9.47917C33.1549 9.47917 32.784 9.32552 32.5105 9.05203C32.237 8.77854 32.0833 8.40761 32.0833 8.02083V2.91667H26.9792C26.5924 2.91667 26.2215 2.76302 25.948 2.48953C25.6745 2.21604 25.5208 1.84511 25.5208 1.45833C25.5208 1.07156 25.6745 0.700627 25.948 0.427136C26.2215 0.153646 26.5924 0 26.9792 0H32.0833C32.8569 0 33.5987 0.307291 34.1457 0.854272C34.6927 1.40125 35 2.14312 35 2.91667ZM33.5417 25.5208C33.1549 25.5208 32.784 25.6745 32.5105 25.948C32.237 26.2215 32.0833 26.5924 32.0833 26.9792V32.0833H26.9792C26.5924 32.0833 26.2215 32.237 25.948 32.5105C25.6745 32.784 25.5208 33.1549 25.5208 33.5417C25.5208 33.9284 25.6745 34.2994 25.948 34.5729C26.2215 34.8464 26.5924 35 26.9792 35H32.0833C32.8569 35 33.5987 34.6927 34.1457 34.1457C34.6927 33.5987 35 32.8569 35 32.0833V26.9792C35 26.5924 34.8464 26.2215 34.5729 25.948C34.2994 25.6745 33.9284 25.5208 33.5417 25.5208ZM8.02083 32.0833H2.91667V26.9792C2.91667 26.5924 2.76302 26.2215 2.48953 25.948C2.21604 25.6745 1.84511 25.5208 1.45833 25.5208C1.07156 25.5208 0.700627 25.6745 0.427136 25.948C0.153646 26.2215 0 26.5924 0 26.9792V32.0833C0 32.8569 0.307291 33.5987 0.854272 34.1457C1.40125 34.6927 2.14312 35 2.91667 35H8.02083C8.40761 35 8.77854 34.8464 9.05203 34.5729C9.32552 34.2994 9.47917 33.9284 9.47917 33.5417C9.47917 33.1549 9.32552 32.784 9.05203 32.5105C8.77854 32.237 8.40761 32.0833 8.02083 32.0833ZM1.45833 9.47917C1.84511 9.47917 2.21604 9.32552 2.48953 9.05203C2.76302 8.77854 2.91667 8.40761 2.91667 8.02083V2.91667H8.02083C8.40761 2.91667 8.77854 2.76302 9.05203 2.48953C9.32552 2.21604 9.47917 1.84511 9.47917 1.45833C9.47917 1.07156 9.32552 0.700627 9.05203 0.427136C8.77854 0.153646 8.40761 0 8.02083 0H2.91667C2.14312 0 1.40125 0.307291 0.854272 0.854272C0.307291 1.40125 0 2.14312 0 2.91667V8.02083C0 8.40761 0.153646 8.77854 0.427136 9.05203C0.700627 9.32552 1.07156 9.47917 1.45833 9.47917ZM25.8854 26.9245C25.0806 25.3978 23.8743 24.1198 22.3966 23.2283C20.9189 22.3368 19.2258 21.8657 17.5 21.8657C15.7742 21.8657 14.0811 22.3368 12.6034 23.2283C11.1257 24.1198 9.91937 25.3978 9.11458 26.9245C9.02601 27.0944 8.90483 27.2453 8.75795 27.3684C8.61108 27.4916 8.44139 27.5846 8.25857 27.6421C8.07576 27.6997 7.8834 27.7207 7.69247 27.7039C7.50155 27.6871 7.3158 27.6328 7.14583 27.5443C6.97587 27.4557 6.82501 27.3345 6.70188 27.1876C6.57875 27.0408 6.48575 26.8711 6.4282 26.6883C6.37064 26.5054 6.34966 26.3131 6.36645 26.1222C6.38324 25.9312 6.43747 25.7455 6.52604 25.5755C7.86006 23.0743 9.99879 21.0961 12.5964 19.9609C11.8421 19.2832 11.2395 18.4539 10.828 17.5272C10.4165 16.6005 10.2053 15.5973 10.2083 14.5833C10.2083 12.6495 10.9766 10.7948 12.344 9.42735C13.7115 8.05989 15.5661 7.29167 17.5 7.29167C19.4339 7.29167 21.2885 8.05989 22.656 9.42735C24.0234 10.7948 24.7917 12.6495 24.7917 14.5833C24.7947 15.5973 24.5835 16.6005 24.172 17.5272C23.7605 18.4539 23.1579 19.2832 22.4036 19.9609C25.0012 21.0961 27.1399 23.0743 28.474 25.5755C28.6483 25.9196 28.681 26.3183 28.5652 26.6862C28.4494 27.0541 28.1942 27.3621 27.8542 27.5443C27.6449 27.6499 27.4141 27.706 27.1797 27.7083C26.912 27.7128 26.6486 27.6415 26.4196 27.5029C26.1907 27.3642 26.0055 27.1637 25.8854 26.9245ZM17.5 18.9583C18.3653 18.9583 19.2112 18.7017 19.9306 18.221C20.6501 17.7403 21.2108 17.057 21.542 16.2576C21.8731 15.4581 21.9597 14.5785 21.7909 13.7298C21.6221 12.8811 21.2054 12.1016 20.5936 11.4897C19.9817 10.8779 19.2022 10.4612 18.3535 10.2924C17.5049 10.1236 16.6252 10.2102 15.8258 10.5414C15.0263 10.8725 14.3431 11.4332 13.8623 12.1527C13.3816 12.8722 13.125 13.718 13.125 14.5833C13.1298 15.7422 13.5923 16.8522 14.4117 17.6716C15.2311 18.4911 16.3412 18.9535 17.5 18.9583Z" fill="#0071CE"/>
</svg>
