<svg width="35" height="28" viewBox="0 0 35 28" fill="none" xmlns="http://www.w3.org/2000/svg">
<path d="M12 8V5C12 4.20435 12.3073 3.44129 12.8543 2.87868C13.4013 2.31607 14.1431 2 14.9167 2H30.0833C30.8569 2 31.5987 2.31607 32.1457 2.87868C32.6927 3.44129 33 4.20435 33 5V23C33 23.7957 32.6927 24.5587 32.1457 25.1213C31.5987 25.6839 30.8569 26 30.0833 26H14.9167C14.1431 26 13.4013 25.6839 12.8543 25.1213C12.3073 24.5587 12 23.7957 12 23V20" stroke="white" stroke-width="3" stroke-linecap="round" stroke-linejoin="round"/>
<path d="M18.9474 20L25 14L18.9474 8M2 14H23.7895" stroke="white" stroke-width="3" stroke-linecap="round" stroke-linejoin="round"/>
</svg>
