<svg width="20" height="20" viewBox="0 0 20 20" fill="none" xmlns="http://www.w3.org/2000/svg">
<g clip-path="url(#clip0_3_189)">
<path d="M13.3333 9.99999V9.99915C13.3333 9.228 13.0659 8.4807 12.5767 7.8846C12.0875 7.28849 11.4067 6.88045 10.6503 6.73C9.894 6.57955 9.1089 6.69599 8.42878 7.05949C7.74867 7.42298 7.21563 8.01105 6.92048 8.72349C6.62533 9.43593 6.58633 10.2287 6.81013 10.9666C7.03392 11.7046 7.50667 12.3421 8.14782 12.7706C8.78897 13.1991 9.55885 13.3921 10.3263 13.3166C11.0938 13.2411 11.8113 12.9019 12.3567 12.3567C12.6661 12.0575 12.9121 11.6991 13.0799 11.3028C13.2477 10.9065 13.3339 10.4804 13.3333 10.05L13.3325 9.99749V9.99999H13.3333ZM15.1333 9.99999C15.1293 11.182 14.7159 12.3262 13.9633 13.2377C13.2107 14.1492 12.1655 14.7718 11.0056 14.9995C9.84566 15.2271 8.64268 15.0458 7.60137 14.4864C6.56007 13.927 5.74478 13.0241 5.29426 11.9312C4.84374 10.8384 4.78583 9.62322 5.13037 8.49249C5.47492 7.36176 6.20063 6.38537 7.18401 5.72946C8.1674 5.07355 9.34768 4.77867 10.524 4.895C11.7003 5.01133 12.8 5.53168 13.6358 6.36749C14.1105 6.82809 14.4878 7.3794 14.7452 7.98867C15.0025 8.59795 15.1348 9.25274 15.1342 9.91415L15.1333 10.005V10.0008V9.99999ZM16.5392 4.66165V4.66332C16.5393 4.94095 16.4431 5.21003 16.267 5.42469C16.091 5.63936 15.8459 5.78634 15.5736 5.84058C15.3014 5.89483 15.0187 5.85298 14.7738 5.72218C14.5289 5.59138 14.337 5.37971 14.2306 5.12324C14.1243 4.86677 14.1102 4.58137 14.1908 4.31567C14.2713 4.04998 14.4414 3.82042 14.6722 3.66612C14.903 3.51181 15.1802 3.44231 15.4565 3.46946C15.7328 3.49661 15.9911 3.61872 16.1875 3.81499C16.4008 4.02415 16.5333 4.31582 16.5333 4.63832V4.66249V4.66165H16.5392ZM10.0058 1.79499L9.01001 1.78832C8.40667 1.78388 7.94862 1.78388 7.63584 1.78832C7.32306 1.79277 6.90417 1.80582 6.37917 1.82749C5.89167 1.84415 5.42917 1.89249 4.97667 1.96915L5.03751 1.96082C4.68334 2.01915 4.36917 2.10249 4.06834 2.21332L4.10417 2.20165C3.67918 2.3725 3.2927 2.62672 2.96752 2.94932C2.64234 3.27192 2.38506 3.65636 2.21084 4.07999L2.20251 4.10249C2.09554 4.39525 2.01631 4.69741 1.96584 5.00499L1.96167 5.03582C1.88755 5.4737 1.84329 5.91611 1.82917 6.35999L1.82834 6.37749C1.80667 6.90304 1.79362 7.32193 1.78917 7.63415C1.78473 7.94638 1.78473 8.40443 1.78917 9.00832C1.79362 9.61221 1.79584 9.94415 1.79584 10.0042C1.79584 10.0642 1.79362 10.3961 1.78917 11C1.78473 11.6039 1.78473 12.0619 1.78917 12.3742C1.79362 12.6864 1.80667 13.1053 1.82834 13.6308C1.84501 14.1183 1.89334 14.5808 1.97001 15.0333L1.96167 14.9725C2.02001 15.3267 2.10334 15.6408 2.21417 15.9417L2.20251 15.9058C2.37335 16.3308 2.62757 16.7173 2.95017 17.0425C3.27277 17.3677 3.65722 17.6249 4.08084 17.7992L4.10334 17.8075C4.36834 17.9067 4.68251 17.99 5.00584 18.0442L5.03667 18.0483C5.42751 18.1167 5.89001 18.165 6.36001 18.1808L6.37751 18.1817C6.90306 18.2033 7.32195 18.2164 7.63417 18.2208C7.9464 18.2253 8.40445 18.2253 9.00834 18.2208L9.99834 18.2008L10.9942 18.2075C11.5975 18.2119 12.0556 18.2119 12.3683 18.2075C12.6811 18.203 13.1 18.19 13.625 18.1683C14.1125 18.1517 14.575 18.1033 15.0275 18.0267L14.9667 18.035C15.3208 17.9767 15.635 17.8933 15.9358 17.7825L15.9 17.7942C16.325 17.6233 16.7115 17.3691 17.0367 17.0465C17.3618 16.7239 17.6191 16.3394 17.7933 15.9158L17.8017 15.8933C17.9008 15.6283 17.9842 15.3142 18.0383 14.9908L18.0425 14.96C18.1108 14.5692 18.1592 14.1067 18.175 13.6367L18.1758 13.6192C18.1975 13.0936 18.2106 12.6747 18.215 12.3625C18.2195 12.0503 18.2195 11.5922 18.215 10.9883C18.2106 10.3844 18.2083 10.0525 18.2083 9.99249C18.2083 9.93249 18.2106 9.60054 18.215 8.99665C18.2195 8.39277 18.2195 7.93471 18.215 7.62249C18.2106 7.31027 18.1975 6.89138 18.1758 6.36582C18.1592 5.87832 18.1108 5.41582 18.0342 4.96332L18.0425 5.02415C17.9896 4.69374 17.9051 4.36919 17.79 4.05499L17.8017 4.09082C17.6308 3.66583 17.3766 3.27934 17.054 2.95417C16.7314 2.62899 16.347 2.37171 15.9233 2.19749L15.9008 2.18915C15.6081 2.08219 15.3059 2.00296 14.9983 1.95249L14.9675 1.94832C14.5299 1.87424 14.0878 1.82997 13.6442 1.81582L13.6267 1.81499C13.1011 1.79332 12.6822 1.78027 12.37 1.77582C12.0578 1.77138 11.5997 1.77138 10.9958 1.77582L10.0058 1.79499ZM20 9.99999C20 11.9878 19.9778 13.3636 19.9333 14.1275C19.9727 14.9016 19.849 15.6754 19.5702 16.3987C19.2915 17.122 18.8638 17.7786 18.315 18.3261C17.7663 18.8735 17.1086 19.2996 16.3846 19.5766C15.6607 19.8536 14.8866 19.9754 14.1125 19.9342L14.1258 19.935C13.362 19.9794 11.9861 20.0017 9.99834 20.0017C8.01056 20.0017 6.63473 19.9794 5.87084 19.935C5.09669 19.9744 4.3229 19.8507 3.59961 19.5719C2.87633 19.2931 2.21968 18.8655 1.67223 18.3167C1.12479 17.7679 0.69875 17.1102 0.421732 16.3863C0.144714 15.6623 0.0228968 14.8882 0.0641736 14.1142L0.0633403 14.1275C0.0188958 13.3636 -0.00332642 11.9878 -0.00332642 9.99999C-0.00332642 8.01221 0.0188958 6.63638 0.0633403 5.87249C0.0239498 5.09834 0.147653 4.32455 0.426434 3.60126C0.705216 2.87797 1.13285 2.22133 1.68164 1.67388C2.23042 1.12643 2.8881 0.700398 3.61207 0.42338C4.33603 0.146362 5.11012 0.0245448 5.88417 0.0658215L5.87084 0.0649882C6.63473 0.0205438 8.01056 -0.00167847 9.99834 -0.00167847C11.9861 -0.00167847 13.362 0.0205438 14.1258 0.0649882C14.9 0.0255977 15.6738 0.149301 16.3971 0.428082C17.1204 0.706863 17.777 1.1345 18.3244 1.68328C18.8719 2.23207 19.2979 2.88975 19.5749 3.61371C19.852 4.33768 19.9738 5.11177 19.9325 5.88582L19.9333 5.87249C19.9778 6.63582 20 8.01165 20 9.99999Z" fill="#EDEDED"/>
</g>
<defs>
<clipPath id="clip0_3_189">
<rect width="20" height="20" fill="white"/>
</clipPath>
</defs>
</svg>
