<svg width="15" height="19" viewBox="0 0 15 19" fill="none" xmlns="http://www.w3.org/2000/svg">
<path d="M14 9.5L10.2857 5.72222M14 9.5L10.2857 13.2778M14 9.5H4.71429M9.35714 18C8.25967 18 7.17294 17.7801 6.159 17.353C5.14507 16.9258 4.22378 16.2997 3.44775 15.5104C2.67172 14.7211 2.05614 13.7841 1.63615 12.7528C1.21616 11.7215 1 10.6162 1 9.5C1 8.38376 1.21616 7.27846 1.63615 6.24719C2.05614 5.21592 2.67172 4.27889 3.44775 3.48959C4.22378 2.70029 5.14507 2.07419 6.159 1.64702C7.17294 1.21986 8.25967 1 9.35714 1" stroke="#F8F8F8" stroke-width="2" stroke-linecap="round" stroke-linejoin="round"/>
</svg>
