<svg width="26" height="27" viewBox="0 0 26 27" fill="none" xmlns="http://www.w3.org/2000/svg">
<path d="M12.038 26.9998C12.5171 26.987 12.9768 26.7793 13.3358 26.4134C13.6949 26.0474 13.9301 25.5467 14 25H10C10.0718 25.5616 10.3181 26.074 10.693 26.4419C11.0679 26.8097 11.5459 27.008 12.038 26.9998Z" fill="#0071CE"/>
<path d="M24 21.7769L23.7262 21.5404C22.9493 20.8629 22.2694 20.0859 21.7047 19.2305C21.088 18.05 20.7183 16.7608 20.6175 15.4386V11.5441C20.6142 11.0711 20.5711 10.5991 20.4886 10.133C19.1244 9.85852 17.899 9.13102 17.0199 8.07366C16.1407 7.0163 15.6619 5.69404 15.6644 4.33076V3.8341C14.8236 3.42904 13.9201 3.16268 12.9906 3.04576V2.05244C12.9906 1.77332 12.8773 1.50562 12.6757 1.30825C12.4741 1.11088 12.2006 1 11.9154 1C11.6303 1 11.3568 1.11088 11.1552 1.30825C10.9535 1.50562 10.8403 1.77332 10.8403 2.05244V3.08518C8.75897 3.37257 6.85415 4.38732 5.47749 5.94209C4.10083 7.49686 3.34528 9.48666 3.35034 11.5441V15.4386C3.24947 16.7608 2.87982 18.05 2.26309 19.2305C1.70809 20.0838 1.03908 20.8606 0.273826 21.5404L0 21.7769V24H24V21.7769Z" fill="#0071CE"/>
<path d="M21.5 9C23.9853 9 26 6.98528 26 4.5C26 2.01472 23.9853 0 21.5 0C19.0147 0 17 2.01472 17 4.5C17 6.98528 19.0147 9 21.5 9Z" fill="#E7004C"/>
</svg>
