<svg width="25" height="18" viewBox="0 0 25 18" fill="none" xmlns="http://www.w3.org/2000/svg">
<path d="M24.9942 6.34377C25.0504 4.6782 24.6949 3.0251 23.9608 1.53796C23.4627 0.927744 22.7715 0.515948 22.0075 0.374322C18.8476 0.0805334 15.6746 -0.0398807 12.5021 0.0135951C9.34122 -0.0423079 6.17965 0.0742206 3.03083 0.362686C2.40829 0.478719 1.83218 0.777919 1.37279 1.22377C0.350706 2.18959 0.237141 3.84195 0.123576 5.23831C-0.0411922 7.74893 -0.0411922 10.268 0.123576 12.7787C0.156431 13.5646 0.270636 14.3447 0.46427 15.1059C0.601201 15.6936 0.87824 16.2374 1.27058 16.6885C1.73309 17.1579 2.32263 17.4742 2.96269 17.5961C5.41105 17.9058 7.87802 18.0341 10.3444 17.9801C14.3192 18.0383 17.8056 17.9801 21.928 17.6543C22.5838 17.5398 23.1899 17.2232 23.6655 16.7467C23.9835 16.4207 24.221 16.0218 24.3583 15.583C24.7644 14.3061 24.9639 12.9696 24.9488 11.6267C24.9942 10.975 24.9942 7.04195 24.9942 6.34377ZM9.93556 12.3248V5.12195L16.6586 8.74085C14.7734 9.8114 12.2864 11.0216 9.93556 12.3248Z" fill="#EDEDED"/>
</svg>
